<svg id="Componente_1_1" data-name="Componente 1 – 1" xmlns="http://www.w3.org/2000/svg" xmlns:xlink="http://www.w3.org/1999/xlink" width="1549" height="89" viewBox="0 0 1549 89">
  <defs>
    <filter id="Rectángulo_2">
      <feOffset dx="-3" dy="3" input="SourceAlpha"/>
      <feGaussianBlur stdDeviation="3" result="blur"/>
      <feFlood flood-opacity="0.639" result="color"/>
      <feComposite operator="out" in="SourceGraphic" in2="blur"/>
      <feComposite operator="in" in="color"/>
      <feComposite operator="in" in2="SourceGraphic"/>
    </filter>
  </defs>
  <g data-type="innerShadowGroup">
    <rect id="Rectángulo_2-2" data-name="Rectángulo 2" width="1549" height="89" rx="17" fill="#fff"/>
    <g transform="matrix(1, 0, 0, 1, 0, 0)" filter="url(#Rectángulo_2)">
      <rect id="Rectángulo_2-3" data-name="Rectángulo 2" width="1549" height="89" rx="17" fill="#fff"/>
    </g>
  </g>
  <text id="Categorias" transform="translate(27 23)" fill="#707070" font-size="30" font-family="OpenSans-Bold, Open Sans" font-weight="700"><tspan x="0" y="32">Categoria</tspan></text>
  <text id="Que_necesitas_" data-name="Que necesitas?" transform="translate(249 24)" fill="#707070" font-size="30" font-family="OpenSans-SemiBold, Open Sans" font-weight="600"><tspan x="0" y="32">Que necesitas?</tspan></text>
  <g id="Rectángulo_3" data-name="Rectángulo 3" transform="translate(225 18)" fill="#fff" stroke="#707070" stroke-width="1">
    <rect width="2" height="54" stroke="none"/>
    <rect x="0.5" y="0.5" width="1" height="53" fill="none"/>
  </g>
  <g id="Rectángulo_4" data-name="Rectángulo 4" transform="translate(1466 18)" fill="#fff" stroke="#707070" stroke-width="1">
    <rect width="2" height="54" stroke="none"/>
    <rect x="0.5" y="0.5" width="1" height="53" fill="none"/>
  </g>
  <path id="Icon_ionic-md-arrow-dropdown" data-name="Icon ionic-md-arrow-dropdown" d="M7.5,11.25l10.2,10.2,10.2-10.2Z" transform="translate(174.258 27.75)" fill="#707070"/>
  <path id="Icon_awesome-search" data-name="Icon awesome-search" d="M29.59,25.939,23.748,20.1a1.405,1.405,0,0,0-1-.41H21.8A12.182,12.182,0,1,0,19.688,21.8v.955a1.405,1.405,0,0,0,.41,1l5.842,5.842a1.4,1.4,0,0,0,1.986,0l1.658-1.658A1.413,1.413,0,0,0,29.59,25.939Zm-17.4-6.252a7.5,7.5,0,1,1,7.5-7.5A7.5,7.5,0,0,1,12.188,19.688Z" transform="translate(1487.6 28.999)" fill="#707070"/>
</svg>
