<svg xmlns="http://www.w3.org/2000/svg" xmlns:xlink="http://www.w3.org/1999/xlink" width="233" height="107" viewBox="0 0 233 107">
  <defs>
    <filter id="Rectángulo_5" x="0" y="0" width="233" height="107" filterUnits="userSpaceOnUse">
      <feOffset dx="-3" dy="3" input="SourceAlpha"/>
      <feGaussianBlur stdDeviation="3" result="blur"/>
      <feFlood flood-opacity="0.341"/>
      <feComposite operator="in" in2="blur"/>
      <feComposite in="SourceGraphic"/>
    </filter>
  </defs>
  <g id="Componente_7_1" data-name="Componente 7 – 1" transform="translate(12 6)">
    <g id="Componente_3" data-name="Componente 3">
      <g transform="matrix(1, 0, 0, 1, -12, -6)" filter="url(#Rectángulo_5)">
        <rect id="Rectángulo_5-2" data-name="Rectángulo 5" width="215" height="89" rx="17" transform="translate(12 6)" fill="#25a825"/>
      </g>
      <path id="Icon_awesome-shopping-cart" data-name="Icon awesome-shopping-cart" d="M37.592,21.448,40.957,6.643a1.708,1.708,0,0,0-1.666-2.087H11.333l-.652-3.19A1.708,1.708,0,0,0,9.006,0h-7.3A1.708,1.708,0,0,0,0,1.708V2.847A1.708,1.708,0,0,0,1.708,4.556H6.683l5,24.446a3.987,3.987,0,1,0,4.772.61H31.378A3.985,3.985,0,1,0,35.9,28.87l.393-1.728a1.708,1.708,0,0,0-1.666-2.087H15.526l-.466-2.278H35.926a1.708,1.708,0,0,0,1.666-1.33Z" transform="translate(18 25.778)" fill="#fefefe"/>
      <text id="_150.880" data-name="$150.880" transform="translate(70 24)" fill="#fefefe" font-size="30" font-family="OpenSans-SemiBold, Open Sans" font-weight="600"><tspan x="0" y="32">$150.880</tspan></text>
    </g>
  </g>
</svg>
