<svg xmlns="http://www.w3.org/2000/svg" xmlns:xlink="http://www.w3.org/1999/xlink" width="107" height="107" viewBox="0 0 107 107">
  <defs>
    <filter id="Rect치ngulo_5" x="0" y="0" width="107" height="107" filterUnits="userSpaceOnUse">
      <feOffset dx="-3" dy="3" input="SourceAlpha"/>
      <feGaussianBlur stdDeviation="3" result="blur"/>
      <feFlood flood-opacity="0.341"/>
      <feComposite operator="in" in2="blur"/>
      <feComposite in="SourceGraphic"/>
    </filter>
  </defs>
  <g id="Grupo_13" data-name="Grupo 13" transform="translate(-1522 -50)">
    <g id="Grupo_4" data-name="Grupo 4" transform="translate(18)">
      <g transform="matrix(1, 0, 0, 1, 1504, 50)" filter="url(#Rect치ngulo_5)">
        <rect id="Rect치ngulo_5-2" data-name="Rect치ngulo 5" width="89" height="89" rx="17" transform="translate(12 6)" fill="#25a825"/>
      </g>
      <g id="Icon_ionic-ios-mail" data-name="Icon ionic-ios-mail" transform="translate(1534.023 75.862)">
        <path id="Trazado_1" data-name="Trazado 1" d="M48.74,11.813,37.032,23.739a.21.21,0,0,0,0,.3l8.194,8.727a1.412,1.412,0,0,1,0,2,1.419,1.419,0,0,1-2,0l-8.161-8.694a.223.223,0,0,0-.316,0L32.756,28.1a8.761,8.761,0,0,1-6.246,2.633,8.937,8.937,0,0,1-6.376-2.709l-1.915-1.948a.223.223,0,0,0-.316,0L9.741,34.773a1.419,1.419,0,0,1-2,0,1.412,1.412,0,0,1,0-2l8.194-8.727a.232.232,0,0,0,0-.3L4.214,11.813a.214.214,0,0,0-.37.152V35.828A3.492,3.492,0,0,0,7.326,39.31h38.3a3.492,3.492,0,0,0,3.482-3.482V11.966A.218.218,0,0,0,48.74,11.813Z" transform="translate(0 0.997)" fill="#fefefe"/>
        <path id="Trazado_2" data-name="Trazado 2" d="M26.129,28.893a5.916,5.916,0,0,0,4.255-1.785L47.457,9.73A3.42,3.42,0,0,0,45.3,8.969H6.967a3.4,3.4,0,0,0-2.155.762L21.886,27.108A5.917,5.917,0,0,0,26.129,28.893Z" transform="translate(0.348)" fill="#fefefe"/>
      </g>
    </g>
  </g>
</svg>
