<svg xmlns="http://www.w3.org/2000/svg" xmlns:xlink="http://www.w3.org/1999/xlink" width="107" height="107" viewBox="0 0 107 107">
  <defs>
    <style>
      .cls-1 {
        fill: #25a825;
      }

      .cls-2 {
        fill: #fefefe;
      }

      .cls-3 {
        filter: url(#Rect치ngulo_7);
      }
    </style>
    <filter id="Rect치ngulo_7" x="0" y="0" width="107" height="107" filterUnits="userSpaceOnUse">
      <feOffset dx="-3" dy="3" input="SourceAlpha"/>
      <feGaussianBlur stdDeviation="3" result="blur"/>
      <feFlood flood-opacity="0.341"/>
      <feComposite operator="in" in2="blur"/>
      <feComposite in="SourceGraphic"/>
    </filter>
  </defs>
  <g id="Grupo_16" data-name="Grupo 16" transform="translate(-1304 -50)">
    <g id="Grupo_11" data-name="Grupo 11">
      <g class="cls-3" transform="matrix(1, 0, 0, 1, 1304, 50)">
        <rect id="Rect치ngulo_7-2" data-name="Rect치ngulo 7" class="cls-1" width="89" height="89" rx="17" transform="translate(12 6)"/>
      </g>
      <path id="Icon_awesome-phone-alt" data-name="Icon awesome-phone-alt" class="cls-2" d="M39.83,28.972l-8.969-3.844a1.922,1.922,0,0,0-2.242.553l-3.972,4.853A29.682,29.682,0,0,1,10.458,16.345l4.853-3.972a1.917,1.917,0,0,0,.553-2.242L12.02,1.162A1.935,1.935,0,0,0,9.818.049L1.489,1.971A1.922,1.922,0,0,0,0,3.844,37.152,37.152,0,0,0,37.156,41a1.922,1.922,0,0,0,1.874-1.489l1.922-8.328a1.945,1.945,0,0,0-1.122-2.21Z" transform="translate(1342 79.999)"/>
    </g>
  </g>
</svg>
