<svg xmlns="http://www.w3.org/2000/svg" width="35" height="24.231" viewBox="0 0 35 24.231">
  <g id="Icon_ionic-ios-mail" data-name="Icon ionic-ios-mail" transform="translate(-3.75 -8.75)">
    <path id="Trazado_6" data-name="Trazado 6" d="M38.464,11.512l-9.053,9.221a.163.163,0,0,0,0,.236l6.335,6.748a1.092,1.092,0,0,1,0,1.548,1.1,1.1,0,0,1-1.548,0l-6.31-6.722a.173.173,0,0,0-.244,0L26.1,24.106a6.774,6.774,0,0,1-4.829,2.036,6.91,6.91,0,0,1-4.93-2.095l-1.481-1.506a.173.173,0,0,0-.244,0L8.31,29.264a1.1,1.1,0,0,1-1.548,0,1.092,1.092,0,0,1,0-1.548L13.1,20.968a.179.179,0,0,0,0-.236L4.036,11.512a.166.166,0,0,0-.286.118V30.08a2.7,2.7,0,0,0,2.692,2.692H36.058A2.7,2.7,0,0,0,38.75,30.08V11.629A.168.168,0,0,0,38.464,11.512Z" transform="translate(0 0.208)"/>
    <path id="Trazado_7" data-name="Trazado 7" d="M21.177,24.155a4.574,4.574,0,0,0,3.29-1.38l13.2-13.436A2.644,2.644,0,0,0,36,8.75H6.361A2.627,2.627,0,0,0,4.7,9.339L17.9,22.775A4.575,4.575,0,0,0,21.177,24.155Z" transform="translate(0.073 0)"/>
  </g>
</svg>
