<svg xmlns="http://www.w3.org/2000/svg" width="41" height="40.999" viewBox="0 0 41 40.999">
  <path id="Icon_awesome-phone-alt" data-name="Icon awesome-phone-alt" d="M39.83,28.972l-8.969-3.844a1.922,1.922,0,0,0-2.242.553l-3.972,4.853A29.682,29.682,0,0,1,10.458,16.345l4.853-3.972a1.917,1.917,0,0,0,.553-2.242L12.02,1.162A1.935,1.935,0,0,0,9.818.049L1.489,1.971A1.922,1.922,0,0,0,0,3.844,37.152,37.152,0,0,0,37.156,41a1.922,1.922,0,0,0,1.874-1.489l1.922-8.328a1.945,1.945,0,0,0-1.122-2.21Z" transform="translate(0 -0.001)" fill="#fefefe"/>
</svg>
