<svg xmlns="http://www.w3.org/2000/svg" width="35" height="35" viewBox="0 0 35 35">
  <path id="Icon_awesome-whatsapp" data-name="Icon awesome-whatsapp" d="M29.758,7.586a17.349,17.349,0,0,0-27.3,20.93L0,37.5l9.2-2.414A17.291,17.291,0,0,0,17.484,37.2h.008A17.511,17.511,0,0,0,35,19.852,17.412,17.412,0,0,0,29.758,7.586ZM17.492,34.273a14.39,14.39,0,0,1-7.344-2.008l-.523-.312-5.453,1.43,1.453-5.32-.344-.547A14.443,14.443,0,1,1,32.07,19.852,14.577,14.577,0,0,1,17.492,34.273Zm7.906-10.8c-.43-.219-2.562-1.266-2.961-1.406s-.687-.219-.977.219-1.117,1.406-1.375,1.7-.508.328-.937.109c-2.547-1.273-4.219-2.273-5.9-5.156-.445-.766.445-.711,1.273-2.367a.8.8,0,0,0-.039-.758c-.109-.219-.977-2.352-1.336-3.219-.352-.844-.711-.727-.977-.742-.25-.016-.539-.016-.828-.016a1.605,1.605,0,0,0-1.156.539A4.87,4.87,0,0,0,8.672,16a8.49,8.49,0,0,0,1.766,4.484c.219.289,3.055,4.664,7.406,6.547,2.75,1.188,3.828,1.289,5.2,1.086a4.439,4.439,0,0,0,2.922-2.062,3.624,3.624,0,0,0,.25-2.062C26.117,23.8,25.828,23.688,25.4,23.477Z" transform="translate(0 -2.5)"/>
</svg>
